<svg height="200px" width="200px" version="1.1" id="_x32_" xmlns="http://www.w3.org/2000/svg" xmlns:xlink="http://www.w3.org/1999/xlink" viewBox="0 0 512 512" xml:space="preserve" fill="#FFD700"><g id="SVGRepo_bgCarrier" stroke-width="0"></g><g id="SVGRepo_tracerCarrier" stroke-linecap="round" stroke-linejoin="round"></g><g id="SVGRepo_iconCarrier"> <style type="text/css"> .st0{fill:#FFD700;} </style> <g> <path class="st0" d="M329.39,123.391l-59.236,59.228l-59.22-59.228c-17.226,8.113-31.83,26.963-31.83,44.673v162.064 c0,11.679,9.474,21.152,21.144,21.152c5.754,0,0,0,14.768,0l8.048,138.216c0,12.432,10.08,22.504,22.504,22.504 c5.245,0,14.915,0,24.586,0c9.687,0,19.357,0,24.602,0c12.424,0,22.505-10.072,22.505-22.504l8.048-138.216 c14.752,0,9.015,0,14.752,0c11.686,0,21.144-9.474,21.144-21.152V168.064C361.221,150.354,346.617,131.504,329.39,123.391z"></path> <path class="st0" d="M270.661,96.435c26.636,0,48.206-21.594,48.206-48.205c0-26.652-21.57-48.23-48.206-48.23 c-26.651,0-48.222,21.578-48.222,48.23C222.44,74.841,244.011,96.435,270.661,96.435z"></path> <path class="st0" d="M193.167,362.581h-35.945c-3.558,0-6.426,2.868-6.426,6.425v104.639c0,3.556,2.868,6.425,6.426,6.425h35.945 c3.54,0,6.425-2.868,6.425-6.425V369.006C199.591,365.45,196.706,362.581,193.167,362.581z"></path> <polygon class="st0" points="257.189,116.76 257.189,154.64 270.154,171.989 283.135,154.64 283.135,116.76 270.154,116.76 "></polygon> </g> </g></svg>