<svg fill="#FFD700" height="200px" width="200px" version="1.1" id="Layer_1" xmlns="http://www.w3.org/2000/svg" xmlns:xlink="http://www.w3.org/1999/xlink" viewBox="0 0 512 512" xml:space="preserve"><g id="SVGRepo_bgCarrier" stroke-width="0"></g><g id="SVGRepo_tracerCarrier" stroke-linecap="round" stroke-linejoin="round"></g><g id="SVGRepo_iconCarrier"> <g transform="translate(1 1)"> <g> <path d="M511,331.8c0-11.491-6.963-20.833-17.067-24.224V202.424C504.037,199.033,511,189.691,511,178.2 c0-14.507-11.093-25.6-25.6-25.6H347.019L307.907,44.227c-2.56-6.827-9.387-11.093-16.213-11.093H33.133 c-9.387,0-17.067,7.68-17.067,17.067v103.776C5.963,157.367-1,166.709-1,178.2c0,11.491,6.963,20.833,17.067,24.224v105.152 C5.963,310.967-1,320.309-1,331.8c0,11.491,6.963,20.833,17.067,24.224V459.8H7.533c-5.12,0-8.533,3.413-8.533,8.533 s3.413,8.533,8.533,8.533H24.6h34.133h51.2h34.133h51.2H229.4h51.2h34.133h51.2h34.133h51.2H485.4h17.067 c5.12,0,8.533-3.413,8.533-8.533s-3.413-8.533-8.533-8.533h-8.533V356.024C504.037,352.633,511,343.291,511,331.8z M33.133,50.2 h258.56l36.693,102.4h-39.253v-51.2c0-18.773-15.36-34.133-34.133-34.133s-34.133,15.36-34.133,34.133v51.2H203.8v-51.2 c0-18.773-15.36-34.133-34.133-34.133c-18.773,0-34.133,15.36-34.133,34.133v51.2h-17.067v-51.2 c0-18.773-15.36-34.133-34.133-34.133C65.56,67.267,50.2,82.627,50.2,101.4v51.2H33.133V50.2z M272.068,101.4v51.2h-0.001h-34.133 v-51.2c0-9.387,7.68-17.067,17.067-17.067C264.388,84.333,272.068,92.013,272.068,101.4z M186.734,101.4v51.2h-0.001H152.6v-51.2 c0-9.387,7.68-17.067,17.067-17.067C179.054,84.333,186.734,92.013,186.734,101.4z M101.401,101.4v51.2H101.4H67.267v-51.2 c0-9.387,7.68-17.067,17.067-17.067C93.721,84.333,101.401,92.013,101.401,101.4z M101.401,459.8H67.267v-51.2 c0-9.387,7.68-17.067,17.067-17.067c9.387,0,17.067,7.68,17.067,17.067V459.8z M186.734,459.8H152.6v-51.2 c0-9.387,7.68-17.067,17.067-17.067c9.387,0,17.067,7.68,17.067,17.067V459.8z M272.067,459.8h-34.134v-51.2 c0-9.387,7.68-17.067,17.067-17.067s17.067,7.68,17.067,17.067V459.8z M357.401,459.8h-34.134v-51.2 c0-9.387,7.68-17.067,17.067-17.067c9.387,0,17.067,7.68,17.067,17.067V459.8z M442.734,459.8H408.6v-51.2 c0-9.387,7.68-17.067,17.067-17.067c9.387,0,17.067,7.68,17.067,17.067V459.8z M476.866,459.8H459.8v-51.2 c0-18.773-15.36-34.133-34.133-34.133s-34.133,15.36-34.133,34.133v51.2h-17.067v-51.2c0-18.773-15.36-34.133-34.133-34.133 s-34.133,15.36-34.133,34.133v51.2h-17.067v-51.2c0-18.773-15.36-34.133-34.133-34.133s-34.133,15.36-34.133,34.133v51.2H203.8 v-51.2c0-18.773-15.36-34.133-34.133-34.133c-18.773,0-34.133,15.36-34.133,34.133v51.2h-17.067v-51.2 c0-18.773-15.36-34.133-34.133-34.133c-18.773,0-34.133,15.36-34.133,34.133v51.2H33.133V357.4h443.733V459.8z M485.4,340.333 H24.6c-5.12,0-8.533-3.413-8.533-8.533s3.413-8.533,8.533-8.533h34.133h51.2h34.133h51.2H229.4h51.2h34.133h51.2h34.133h51.2 H485.4c5.12,0,8.533,3.413,8.533,8.533S490.52,340.333,485.4,340.333z M425.667,220.867c-18.773,0-34.133,15.36-34.133,34.133 v51.2h-17.067V255c0-18.773-15.36-34.133-34.133-34.133s-34.133,15.36-34.133,34.133v51.2h-17.067V255 c0-18.773-15.36-34.133-34.133-34.133s-34.133,15.36-34.133,34.133v51.2H203.8V255c0-18.773-15.36-34.133-34.133-34.133 c-18.773,0-34.133,15.36-34.133,34.133v51.2h-17.067V255c0-18.773-15.36-34.133-34.133-34.133 C65.56,220.867,50.2,236.227,50.2,255v51.2H33.133V203.8h443.733v102.4H459.8V255C459.8,236.227,444.44,220.867,425.667,220.867z M442.734,255v51.2h-0.001H408.6V255c0-9.387,7.68-17.067,17.067-17.067C435.054,237.933,442.734,245.613,442.734,255z M357.4,255 v51.2h-34.133V255c0-9.387,7.68-17.067,17.067-17.067C349.721,237.933,357.4,245.613,357.4,255z M272.068,255v51.2h-0.001h-34.133 V255c0-9.387,7.68-17.067,17.067-17.067C264.388,237.933,272.068,245.613,272.068,255z M186.734,255v51.2h-0.001H152.6V255 c0-9.387,7.68-17.067,17.067-17.067C179.054,237.933,186.734,245.613,186.734,255z M101.401,255v51.2H101.4H67.267V255 c0-9.387,7.68-17.067,17.067-17.067C93.721,237.933,101.401,245.613,101.401,255z M485.4,186.733H24.6 c-5.12,0-8.533-3.413-8.533-8.533s3.413-8.533,8.533-8.533h34.133h51.2h34.133h51.2H229.4h51.2h59.733H485.4 c5.12,0,8.533,3.413,8.533,8.533S490.52,186.733,485.4,186.733z"></path> </g> </g> </g></svg>