<svg viewBox="0 0 24 24" id="Layer_1" data-name="Layer 1" xmlns="http://www.w3.org/2000/svg" fill="#FFD700"><g id="SVGRepo_bgCarrier" stroke-width="0"></g><g id="SVGRepo_tracerCarrier" stroke-linecap="round" stroke-linejoin="round"></g><g id="SVGRepo_iconCarrier"><defs><style>.cls-1{fill:none;stroke:#FFD700;stroke-miterlimit:10;stroke-width:1.91px;}</style></defs><path class="cls-1" d="M12,12h0a9.55,9.55,0,0,1,9.55,9.55v1a0,0,0,0,1,0,0H2.45a0,0,0,0,1,0,0v-1A9.55,9.55,0,0,1,12,12Z"></path><path class="cls-1" d="M7.23,1.5h9.55a0,0,0,0,1,0,0V7.23A4.77,4.77,0,0,1,12,12h0A4.77,4.77,0,0,1,7.23,7.23V1.5A0,0,0,0,1,7.23,1.5Z"></path><polyline class="cls-1" points="7.23 4.36 12 5.32 16.77 4.07"></polyline><line class="cls-1" x1="3.41" y1="1.5" x2="20.59" y2="1.5"></line><line class="cls-1" x1="16.77" y1="12.95" x2="13.35" y2="16.38"></line><line class="cls-1" x1="10.65" y1="16.38" x2="7.23" y2="12.95"></line><circle class="cls-1" cx="12" cy="17.73" r="1.91"></circle></g></svg>