<svg fill="#FFD700" height="200px" width="200px" version="1.1" id="Layer_1" xmlns="http://www.w3.org/2000/svg" xmlns:xlink="http://www.w3.org/1999/xlink" viewBox="0 0 512.002 512.002" xml:space="preserve" stroke="#f2ea02"><g id="SVGRepo_bgCarrier" stroke-width="0"></g><g id="SVGRepo_tracerCarrier" stroke-linecap="round" stroke-linejoin="round"></g><g id="SVGRepo_iconCarrier"> <g> <g> <path d="M510.722,303.843c-1.884-3.521-5.552-5.718-9.544-5.718H398.533l-23.236-82.875h15.661 c9.404,0,17.029-7.624,17.029-17.029s-7.624-17.029-17.029-17.029H214.964v-30.085c9.404,0,17.029-7.624,17.029-17.029 s-7.624-17.029-17.029-17.029h-74.903c-9.405,0-17.029,7.624-17.029,17.029s7.624,17.029,17.029,17.029v30.085h-23.023v-88.55 c9.404,0,17.029-7.624,17.029-17.029c0-9.404-7.624-17.029-17.029-17.029H67.404c-9.405,0-17.029,7.624-17.029,17.029 c0,9.404,7.624,17.029,17.029,17.029v88.551h-21.57c-9.404,0-17.029,7.624-17.029,17.029s7.624,17.029,17.029,17.029h2.271v82.875 H14.781c-4.222,0-8.242,1.805-11.047,4.961c-2.805,3.156-4.126,7.359-3.632,11.552l11.743,99.46 c0.948,8.034,3.248,15.608,6.633,22.526c9.621,2.205,18.457,7.052,25.608,14.205c2.249,2.248,4.876,2.584,6.242,2.584 s3.992-0.336,6.242-2.584c10.036-10.038,23.381-15.566,37.574-15.566c14.194,0,27.538,5.527,37.574,15.566 c2.25,2.248,4.876,2.584,6.242,2.584s3.993-0.336,6.242-2.584c10.036-10.038,23.381-15.566,37.574-15.566 s27.538,5.527,37.574,15.566c2.249,2.248,4.876,2.584,6.242,2.584s3.992-0.336,6.242-2.584 c20.718-20.721,54.432-20.719,75.15-0.001c2.249,2.249,4.876,2.586,6.242,2.586c1.366,0,3.992-0.336,6.242-2.586 c20.718-20.718,54.431-20.718,75.149,0c3.442,3.442,9.042,3.442,12.484,0c6.032-6.032,13.263-10.42,21.15-12.975l81.932-122.898 C512.399,311.635,512.605,307.364,510.722,303.843z M300.873,233.414c0-3.762,3.05-6.812,6.812-6.812h11.284 c3.762,0,6.812,3.05,6.812,6.812v11.284c0,3.762-3.05,6.812-6.812,6.812h-11.284c-3.762,0-6.812-3.05-6.812-6.812V233.414z M217.817,233.414c0-3.762,3.05-6.812,6.812-6.812h11.284c3.762,0,6.812,3.05,6.812,6.812v11.284c0,3.762-3.05,6.812-6.812,6.812 h-11.284c-3.762,0-6.812-3.05-6.812-6.812V233.414z M174.889,263.006c3.762,0,6.812,3.05,6.812,6.812v11.284 c0,3.762-3.05,6.812-6.812,6.812h-11.284c-3.762,0-6.812-3.05-6.812-6.812v-11.284c0-3.762,3.05-6.812,6.812-6.812H174.889z M87.839,371.919c-12.226,0-22.138-9.912-22.138-22.138s9.911-22.138,22.138-22.138c12.226,0,22.138,9.912,22.138,22.138 S100.065,371.919,87.839,371.919z M100.043,251.51c-3.762,0-6.812-3.05-6.812-6.812v-11.284c0-3.762,3.05-6.812,6.812-6.812 h11.284c3.762,0,6.812,3.05,6.812,6.812v11.284c0,3.762-3.05,6.812-6.812,6.812H100.043z M140.173,281.102 c0,3.762-3.05,6.812-6.812,6.812h-11.284c-3.762,0-6.812-3.05-6.812-6.812v-11.284c0-3.762,3.05-6.812,6.812-6.812h11.284 c3.762,0,6.812,3.05,6.812,6.812V281.102z M134.76,244.698v-11.284c0-3.762,3.05-6.812,6.812-6.812h11.284 c3.762,0,6.812,3.05,6.812,6.812v11.284c0,3.762-3.05,6.812-6.812,6.812h-11.284C137.81,251.51,134.76,248.46,134.76,244.698z M164.611,371.92c-12.226,0-22.138-9.912-22.138-22.138c0-12.226,9.912-22.138,22.138-22.138c12.226,0,22.138,9.912,22.138,22.138 C186.749,362.008,176.838,371.92,164.611,371.92z M183.1,251.51c-3.762,0-6.812-3.05-6.812-6.812v-11.284 c0-3.762,3.05-6.812,6.812-6.812h11.284c3.762,0,6.812,3.05,6.812,6.812v11.284c0,3.762-3.05,6.812-6.812,6.812H183.1z M205.134,287.913c-3.762,0-6.812-3.05-6.812-6.812v-11.284c0-3.762,3.05-6.812,6.812-6.812h11.284 c3.762,0,6.812,3.05,6.812,6.812v11.284c0,3.762-3.05,6.812-6.812,6.812H205.134z M241.384,371.92 c-12.226,0-22.138-9.912-22.138-22.138c0-12.226,9.912-22.138,22.138-22.138c12.226,0,22.138,9.912,22.138,22.138 C263.521,362.008,253.61,371.92,241.384,371.92z M264.758,281.102c0,3.762-3.05,6.812-6.812,6.812h-11.284 c-3.762,0-6.812-3.05-6.812-6.812v-11.284c0-3.762,3.05-6.812,6.812-6.812h11.284c3.762,0,6.812,3.05,6.812,6.812V281.102z M266.157,251.51c-3.762,0-6.812-3.05-6.812-6.812v-11.284c0-3.762,3.05-6.812,6.812-6.812h11.284c3.762,0,6.812,3.05,6.812,6.812 v11.284c0,3.762-3.05,6.812-6.812,6.812H266.157z M281.379,281.102v-11.284c0-3.762,3.05-6.812,6.812-6.812h11.284 c3.762,0,6.812,3.05,6.812,6.812v11.284c0,3.762-3.05,6.812-6.812,6.812h-11.284C284.429,287.913,281.379,284.864,281.379,281.102 z M318.156,371.92c-12.226,0-22.138-9.912-22.138-22.138c0-12.226,9.912-22.138,22.138-22.138 c12.226,0,22.138,9.912,22.138,22.138C340.293,362.008,330.382,371.92,318.156,371.92z M347.815,281.102 c0,3.762-3.05,6.812-6.812,6.812h-11.284c-3.762,0-6.812-3.05-6.812-6.812v-11.284c0-3.762,3.05-6.812,6.812-6.812h11.284 c3.762,0,6.812,3.05,6.812,6.812V281.102z M394.928,371.919c-12.226,0-22.138-9.912-22.138-22.138s9.911-22.138,22.138-22.138 c12.226,0,22.138,9.912,22.138,22.138S407.154,371.919,394.928,371.919z"></path> </g> </g> </g></svg>